<svg xmlns="http://www.w3.org/2000/svg" width="467" height="341" viewBox="0 0 467 341" fill="none">
  <g>
    <rect x="29" y="29" width="18" height="18" fill="none" stroke="#FFFFFF" stroke-width="2"/>
    <rect x="47" y="29" width="18" height="18" fill="none" stroke="#FFFFFF" stroke-width="2"/>
    <rect x="65" y="29" width="18" height="18" fill="none" stroke="#FFFFFF" stroke-width="2"/>
    <rect x="83" y="29" width="18" height="18" fill="none" stroke="#FFFFFF" stroke-width="2"/>
    <rect x="101" y="29" width="18" height="18" fill="none" stroke="#FFFFFF" stroke-width="2"/>
    <rect x="29" y="47" width="18" height="18" fill="none" stroke="#FFFFFF" stroke-width="2"/>
    <rect x="29" y="65" width="18" height="18" fill="none" stroke="#FFFFFF" stroke-width="2"/>
    <rect x="29" y="83" width="18" height="18" fill="none" stroke="#FFFFFF" stroke-width="2"/>
    <rect x="47" y="83" width="18" height="18" fill="none" stroke="#FFFFFF" stroke-width="2"/>
    <rect x="65" y="83" width="18" height="18" fill="none" stroke="#FFFFFF" stroke-width="2"/>
    <rect x="83" y="83" width="18" height="18" fill="none" stroke="#FFFFFF" stroke-width="2"/>
    <rect x="29" y="101" width="18" height="18" fill="none" stroke="#FFFFFF" stroke-width="2"/>
    <rect x="29" y="119" width="18" height="18" fill="none" stroke="#FFFFFF" stroke-width="2"/>
    <rect x="29" y="137" width="18" height="18" fill="none" stroke="#FFFFFF" stroke-width="2"/>
    <rect x="137" y="29" width="18" height="18" fill="none" stroke="#FFFFFF" stroke-width="2"/>
    <rect x="155" y="29" width="18" height="18" fill="none" stroke="#FFFFFF" stroke-width="2"/>
    <rect x="173" y="29" width="18" height="18" fill="none" stroke="#FFFFFF" stroke-width="2"/>
    <rect x="191" y="29" width="18" height="18" fill="none" stroke="#FFFFFF" stroke-width="2"/>
    <rect x="209" y="29" width="18" height="18" fill="none" stroke="#FFFFFF" stroke-width="2"/>
    <rect x="173" y="47" width="18" height="18" fill="none" stroke="#FFFFFF" stroke-width="2"/>
    <rect x="173" y="65" width="18" height="18" fill="none" stroke="#FFFFFF" stroke-width="2"/>
    <rect x="173" y="83" width="18" height="18" fill="none" stroke="#FFFFFF" stroke-width="2"/>
    <rect x="173" y="101" width="18" height="18" fill="none" stroke="#FFFFFF" stroke-width="2"/>
    <rect x="173" y="119" width="18" height="18" fill="none" stroke="#FFFFFF" stroke-width="2"/>
    <rect x="137" y="137" width="18" height="18" fill="none" stroke="#FFFFFF" stroke-width="2"/>
    <rect x="155" y="137" width="18" height="18" fill="none" stroke="#FFFFFF" stroke-width="2"/>
    <rect x="173" y="137" width="18" height="18" fill="none" stroke="#FFFFFF" stroke-width="2"/>
    <rect x="191" y="137" width="18" height="18" fill="none" stroke="#FFFFFF" stroke-width="2"/>
    <rect x="209" y="137" width="18" height="18" fill="none" stroke="#FFFFFF" stroke-width="2"/>
    <rect x="245" y="29" width="18" height="18" fill="none" stroke="#FFFFFF" stroke-width="2"/>
    <rect x="317" y="29" width="18" height="18" fill="none" stroke="#FFFFFF" stroke-width="2"/>
    <rect x="245" y="47" width="18" height="18" fill="none" stroke="#FFFFFF" stroke-width="2"/>
    <rect x="263" y="47" width="18" height="18" fill="none" stroke="#FFFFFF" stroke-width="2"/>
    <rect x="317" y="47" width="18" height="18" fill="none" stroke="#FFFFFF" stroke-width="2"/>
    <rect x="245" y="65" width="18" height="18" fill="none" stroke="#FFFFFF" stroke-width="2"/>
    <rect x="263" y="65" width="18" height="18" fill="none" stroke="#FFFFFF" stroke-width="2"/>
    <rect x="317" y="65" width="18" height="18" fill="none" stroke="#FFFFFF" stroke-width="2"/>
    <rect x="245" y="83" width="18" height="18" fill="none" stroke="#FFFFFF" stroke-width="2"/>
    <rect x="281" y="83" width="18" height="18" fill="none" stroke="#FFFFFF" stroke-width="2"/>
    <rect x="317" y="83" width="18" height="18" fill="none" stroke="#FFFFFF" stroke-width="2"/>
    <rect x="245" y="101" width="18" height="18" fill="none" stroke="#FFFFFF" stroke-width="2"/>
    <rect x="299" y="101" width="18" height="18" fill="none" stroke="#FFFFFF" stroke-width="2"/>
    <rect x="317" y="101" width="18" height="18" fill="none" stroke="#FFFFFF" stroke-width="2"/>
    <rect x="245" y="119" width="18" height="18" fill="none" stroke="#FFFFFF" stroke-width="2"/>
    <rect x="299" y="119" width="18" height="18" fill="none" stroke="#FFFFFF" stroke-width="2"/>
    <rect x="317" y="119" width="18" height="18" fill="none" stroke="#FFFFFF" stroke-width="2"/>
    <rect x="245" y="137" width="18" height="18" fill="none" stroke="#FFFFFF" stroke-width="2"/>
    <rect x="317" y="137" width="18" height="18" fill="none" stroke="#FFFFFF" stroke-width="2"/>
    <rect x="353" y="29" width="18" height="18" fill="none" stroke="#FFFFFF" stroke-width="2"/>
    <rect x="371" y="29" width="18" height="18" fill="none" stroke="#FFFFFF" stroke-width="2"/>
    <rect x="389" y="29" width="18" height="18" fill="none" stroke="#FFFFFF" stroke-width="2"/>
    <rect x="407" y="29" width="18" height="18" fill="none" stroke="#FFFFFF" stroke-width="2"/>
    <rect x="353" y="47" width="18" height="18" fill="none" stroke="#FFFFFF" stroke-width="2"/>
    <rect x="425" y="47" width="18" height="18" fill="none" stroke="#FFFFFF" stroke-width="2"/>
    <rect x="353" y="65" width="18" height="18" fill="none" stroke="#FFFFFF" stroke-width="2"/>
    <rect x="425" y="65" width="18" height="18" fill="none" stroke="#FFFFFF" stroke-width="2"/>
    <rect x="353" y="83" width="18" height="18" fill="none" stroke="#FFFFFF" stroke-width="2"/>
    <rect x="425" y="83" width="18" height="18" fill="none" stroke="#FFFFFF" stroke-width="2"/>
    <rect x="353" y="101" width="18" height="18" fill="none" stroke="#FFFFFF" stroke-width="2"/>
    <rect x="425" y="101" width="18" height="18" fill="none" stroke="#FFFFFF" stroke-width="2"/>
    <rect x="353" y="119" width="18" height="18" fill="none" stroke="#FFFFFF" stroke-width="2"/>
    <rect x="425" y="119" width="18" height="18" fill="none" stroke="#FFFFFF" stroke-width="2"/>
    <rect x="353" y="137" width="18" height="18" fill="none" stroke="#FFFFFF" stroke-width="2"/>
    <rect x="371" y="137" width="18" height="18" fill="none" stroke="#FFFFFF" stroke-width="2"/>
    <rect x="389" y="137" width="18" height="18" fill="none" stroke="#FFFFFF" stroke-width="2"/>
    <rect x="407" y="137" width="18" height="18" fill="none" stroke="#FFFFFF" stroke-width="2"/>
    <rect x="29" y="191" width="18" height="18" fill="none" stroke="#FFFFFF" stroke-width="2"/>
    <rect x="47" y="191" width="18" height="18" fill="none" stroke="#FFFFFF" stroke-width="2"/>
    <rect x="65" y="191" width="18" height="18" fill="none" stroke="#FFFFFF" stroke-width="2"/>
    <rect x="83" y="191" width="18" height="18" fill="none" stroke="#FFFFFF" stroke-width="2"/>
    <rect x="101" y="191" width="18" height="18" fill="none" stroke="#FFFFFF" stroke-width="2"/>
    <rect x="65" y="209" width="18" height="18" fill="none" stroke="#FFFFFF" stroke-width="2"/>
    <rect x="65" y="227" width="18" height="18" fill="none" stroke="#FFFFFF" stroke-width="2"/>
    <rect x="65" y="245" width="18" height="18" fill="none" stroke="#FFFFFF" stroke-width="2"/>
    <rect x="65" y="263" width="18" height="18" fill="none" stroke="#FFFFFF" stroke-width="2"/>
    <rect x="65" y="281" width="18" height="18" fill="none" stroke="#FFFFFF" stroke-width="2"/>
    <rect x="29" y="299" width="18" height="18" fill="none" stroke="#FFFFFF" stroke-width="2"/>
    <rect x="47" y="299" width="18" height="18" fill="none" stroke="#FFFFFF" stroke-width="2"/>
    <rect x="65" y="299" width="18" height="18" fill="none" stroke="#FFFFFF" stroke-width="2"/>
    <rect x="83" y="299" width="18" height="18" fill="none" stroke="#FFFFFF" stroke-width="2"/>
    <rect x="101" y="299" width="18" height="18" fill="none" stroke="#FFFFFF" stroke-width="2"/>
    <rect x="137" y="191" width="18" height="18" fill="none" stroke="#FFFFFF" stroke-width="2"/>
    <rect x="155" y="191" width="18" height="18" fill="none" stroke="#FFFFFF" stroke-width="2"/>
    <rect x="173" y="191" width="18" height="18" fill="none" stroke="#FFFFFF" stroke-width="2"/>
    <rect x="191" y="191" width="18" height="18" fill="none" stroke="#FFFFFF" stroke-width="2"/>
    <rect x="209" y="191" width="18" height="18" fill="none" stroke="#FFFFFF" stroke-width="2"/>
    <rect x="173" y="209" width="18" height="18" fill="none" stroke="#FFFFFF" stroke-width="2"/>
    <rect x="173" y="227" width="18" height="18" fill="none" stroke="#FFFFFF" stroke-width="2"/>
    <rect x="173" y="245" width="18" height="18" fill="none" stroke="#FFFFFF" stroke-width="2"/>
    <rect x="173" y="263" width="18" height="18" fill="none" stroke="#FFFFFF" stroke-width="2"/>
    <rect x="173" y="281" width="18" height="18" fill="none" stroke="#FFFFFF" stroke-width="2"/>
    <rect x="173" y="299" width="18" height="18" fill="none" stroke="#FFFFFF" stroke-width="2"/>
    <rect x="245" y="191" width="18" height="18" fill="none" stroke="#FFFFFF" stroke-width="2"/>
    <rect x="263" y="191" width="18" height="18" fill="none" stroke="#FFFFFF" stroke-width="2"/>
    <rect x="281" y="191" width="18" height="18" fill="none" stroke="#FFFFFF" stroke-width="2"/>
    <rect x="299" y="191" width="18" height="18" fill="none" stroke="#FFFFFF" stroke-width="2"/>
    <rect x="317" y="191" width="18" height="18" fill="none" stroke="#FFFFFF" stroke-width="2"/>
    <rect x="245" y="209" width="18" height="18" fill="none" stroke="#FFFFFF" stroke-width="2"/>
    <rect x="245" y="227" width="18" height="18" fill="none" stroke="#FFFFFF" stroke-width="2"/>
    <rect x="245" y="245" width="18" height="18" fill="none" stroke="#FFFFFF" stroke-width="2"/>
    <rect x="263" y="245" width="18" height="18" fill="none" stroke="#FFFFFF" stroke-width="2"/>
    <rect x="281" y="245" width="18" height="18" fill="none" stroke="#FFFFFF" stroke-width="2"/>
    <rect x="299" y="245" width="18" height="18" fill="none" stroke="#FFFFFF" stroke-width="2"/>
    <rect x="245" y="263" width="18" height="18" fill="none" stroke="#FFFFFF" stroke-width="2"/>
    <rect x="245" y="281" width="18" height="18" fill="none" stroke="#FFFFFF" stroke-width="2"/>
    <rect x="245" y="299" width="18" height="18" fill="none" stroke="#FFFFFF" stroke-width="2"/>
    <rect x="263" y="299" width="18" height="18" fill="none" stroke="#FFFFFF" stroke-width="2"/>
    <rect x="281" y="299" width="18" height="18" fill="none" stroke="#FFFFFF" stroke-width="2"/>
    <rect x="299" y="299" width="18" height="18" fill="none" stroke="#FFFFFF" stroke-width="2"/>
    <rect x="317" y="299" width="18" height="18" fill="none" stroke="#FFFFFF" stroke-width="2"/>
    <rect x="353" y="191" width="18" height="18" fill="none" stroke="#FFFFFF" stroke-width="2"/>
    <rect x="425" y="191" width="18" height="18" fill="none" stroke="#FFFFFF" stroke-width="2"/>
    <rect x="353" y="209" width="18" height="18" fill="none" stroke="#FFFFFF" stroke-width="2"/>
    <rect x="371" y="209" width="18" height="18" fill="none" stroke="#FFFFFF" stroke-width="2"/>
    <rect x="407" y="209" width="18" height="18" fill="none" stroke="#FFFFFF" stroke-width="2"/>
    <rect x="425" y="209" width="18" height="18" fill="none" stroke="#FFFFFF" stroke-width="2"/>
    <rect x="353" y="227" width="18" height="18" fill="none" stroke="#FFFFFF" stroke-width="2"/>
    <rect x="389" y="227" width="18" height="18" fill="none" stroke="#FFFFFF" stroke-width="2"/>
    <rect x="425" y="227" width="18" height="18" fill="none" stroke="#FFFFFF" stroke-width="2"/>
    <rect x="353" y="245" width="18" height="18" fill="none" stroke="#FFFFFF" stroke-width="2"/>
    <rect x="389" y="245" width="18" height="18" fill="none" stroke="#FFFFFF" stroke-width="2"/>
    <rect x="425" y="245" width="18" height="18" fill="none" stroke="#FFFFFF" stroke-width="2"/>
    <rect x="353" y="263" width="18" height="18" fill="none" stroke="#FFFFFF" stroke-width="2"/>
    <rect x="425" y="263" width="18" height="18" fill="none" stroke="#FFFFFF" stroke-width="2"/>
    <rect x="353" y="281" width="18" height="18" fill="none" stroke="#FFFFFF" stroke-width="2"/>
    <rect x="425" y="281" width="18" height="18" fill="none" stroke="#FFFFFF" stroke-width="2"/>
    <rect x="353" y="299" width="18" height="18" fill="none" stroke="#FFFFFF" stroke-width="2"/>
    <rect x="425" y="299" width="18" height="18" fill="none" stroke="#FFFFFF" stroke-width="2"/>
  </g>
  <g>
    <rect x="24" y="24" width="18" height="18" fill="#61C4E3" stroke="#2E9BC4" stroke-width="1.5"/>
    <rect x="42" y="24" width="18" height="18" fill="#61C4E3" stroke="#2E9BC4" stroke-width="1.5"/>
    <rect x="60" y="24" width="18" height="18" fill="#61C4E3" stroke="#2E9BC4" stroke-width="1.5"/>
    <rect x="78" y="24" width="18" height="18" fill="#61C4E3" stroke="#2E9BC4" stroke-width="1.5"/>
    <rect x="96" y="24" width="18" height="18" fill="#61C4E3" stroke="#2E9BC4" stroke-width="1.5"/>
    <rect x="24" y="42" width="18" height="18" fill="#61C4E3" stroke="#2E9BC4" stroke-width="1.5"/>
    <rect x="24" y="60" width="18" height="18" fill="#61C4E3" stroke="#2E9BC4" stroke-width="1.5"/>
    <rect x="24" y="78" width="18" height="18" fill="#61C4E3" stroke="#2E9BC4" stroke-width="1.5"/>
    <rect x="42" y="78" width="18" height="18" fill="#61C4E3" stroke="#2E9BC4" stroke-width="1.5"/>
    <rect x="60" y="78" width="18" height="18" fill="#61C4E3" stroke="#2E9BC4" stroke-width="1.5"/>
    <rect x="78" y="78" width="18" height="18" fill="#61C4E3" stroke="#2E9BC4" stroke-width="1.5"/>
    <rect x="24" y="96" width="18" height="18" fill="#61C4E3" stroke="#2E9BC4" stroke-width="1.5"/>
    <rect x="24" y="114" width="18" height="18" fill="#61C4E3" stroke="#2E9BC4" stroke-width="1.5"/>
    <rect x="24" y="132" width="18" height="18" fill="#61C4E3" stroke="#2E9BC4" stroke-width="1.5"/>
    <rect x="132" y="24" width="18" height="18" fill="#61C4E3" stroke="#2E9BC4" stroke-width="1.5"/>
    <rect x="150" y="24" width="18" height="18" fill="#61C4E3" stroke="#2E9BC4" stroke-width="1.5"/>
    <rect x="168" y="24" width="18" height="18" fill="#61C4E3" stroke="#2E9BC4" stroke-width="1.5"/>
    <rect x="186" y="24" width="18" height="18" fill="#61C4E3" stroke="#2E9BC4" stroke-width="1.5"/>
    <rect x="204" y="24" width="18" height="18" fill="#61C4E3" stroke="#2E9BC4" stroke-width="1.5"/>
    <rect x="168" y="42" width="18" height="18" fill="#61C4E3" stroke="#2E9BC4" stroke-width="1.5"/>
    <rect x="168" y="60" width="18" height="18" fill="#61C4E3" stroke="#2E9BC4" stroke-width="1.5"/>
    <rect x="168" y="78" width="18" height="18" fill="#61C4E3" stroke="#2E9BC4" stroke-width="1.5"/>
    <rect x="168" y="96" width="18" height="18" fill="#61C4E3" stroke="#2E9BC4" stroke-width="1.5"/>
    <rect x="168" y="114" width="18" height="18" fill="#61C4E3" stroke="#2E9BC4" stroke-width="1.5"/>
    <rect x="132" y="132" width="18" height="18" fill="#61C4E3" stroke="#2E9BC4" stroke-width="1.5"/>
    <rect x="150" y="132" width="18" height="18" fill="#61C4E3" stroke="#2E9BC4" stroke-width="1.5"/>
    <rect x="168" y="132" width="18" height="18" fill="#61C4E3" stroke="#2E9BC4" stroke-width="1.5"/>
    <rect x="186" y="132" width="18" height="18" fill="#61C4E3" stroke="#2E9BC4" stroke-width="1.5"/>
    <rect x="204" y="132" width="18" height="18" fill="#61C4E3" stroke="#2E9BC4" stroke-width="1.5"/>
    <rect x="240" y="24" width="18" height="18" fill="#61C4E3" stroke="#2E9BC4" stroke-width="1.5"/>
    <rect x="312" y="24" width="18" height="18" fill="#61C4E3" stroke="#2E9BC4" stroke-width="1.5"/>
    <rect x="240" y="42" width="18" height="18" fill="#61C4E3" stroke="#2E9BC4" stroke-width="1.5"/>
    <rect x="258" y="42" width="18" height="18" fill="#61C4E3" stroke="#2E9BC4" stroke-width="1.5"/>
    <rect x="312" y="42" width="18" height="18" fill="#61C4E3" stroke="#2E9BC4" stroke-width="1.5"/>
    <rect x="240" y="60" width="18" height="18" fill="#61C4E3" stroke="#2E9BC4" stroke-width="1.5"/>
    <rect x="258" y="60" width="18" height="18" fill="#61C4E3" stroke="#2E9BC4" stroke-width="1.5"/>
    <rect x="312" y="60" width="18" height="18" fill="#61C4E3" stroke="#2E9BC4" stroke-width="1.5"/>
    <rect x="240" y="78" width="18" height="18" fill="#61C4E3" stroke="#2E9BC4" stroke-width="1.5"/>
    <rect x="276" y="78" width="18" height="18" fill="#61C4E3" stroke="#2E9BC4" stroke-width="1.5"/>
    <rect x="312" y="78" width="18" height="18" fill="#61C4E3" stroke="#2E9BC4" stroke-width="1.5"/>
    <rect x="240" y="96" width="18" height="18" fill="#61C4E3" stroke="#2E9BC4" stroke-width="1.5"/>
    <rect x="294" y="96" width="18" height="18" fill="#61C4E3" stroke="#2E9BC4" stroke-width="1.5"/>
    <rect x="312" y="96" width="18" height="18" fill="#61C4E3" stroke="#2E9BC4" stroke-width="1.5"/>
    <rect x="240" y="114" width="18" height="18" fill="#61C4E3" stroke="#2E9BC4" stroke-width="1.5"/>
    <rect x="294" y="114" width="18" height="18" fill="#61C4E3" stroke="#2E9BC4" stroke-width="1.5"/>
    <rect x="312" y="114" width="18" height="18" fill="#61C4E3" stroke="#2E9BC4" stroke-width="1.5"/>
    <rect x="240" y="132" width="18" height="18" fill="#61C4E3" stroke="#2E9BC4" stroke-width="1.5"/>
    <rect x="312" y="132" width="18" height="18" fill="#61C4E3" stroke="#2E9BC4" stroke-width="1.5"/>
    <rect x="348" y="24" width="18" height="18" fill="#61C4E3" stroke="#2E9BC4" stroke-width="1.5"/>
    <rect x="366" y="24" width="18" height="18" fill="#61C4E3" stroke="#2E9BC4" stroke-width="1.5"/>
    <rect x="384" y="24" width="18" height="18" fill="#61C4E3" stroke="#2E9BC4" stroke-width="1.5"/>
    <rect x="402" y="24" width="18" height="18" fill="#61C4E3" stroke="#2E9BC4" stroke-width="1.5"/>
    <rect x="348" y="42" width="18" height="18" fill="#61C4E3" stroke="#2E9BC4" stroke-width="1.5"/>
    <rect x="420" y="42" width="18" height="18" fill="#61C4E3" stroke="#2E9BC4" stroke-width="1.5"/>
    <rect x="348" y="60" width="18" height="18" fill="#61C4E3" stroke="#2E9BC4" stroke-width="1.5"/>
    <rect x="420" y="60" width="18" height="18" fill="#61C4E3" stroke="#2E9BC4" stroke-width="1.5"/>
    <rect x="348" y="78" width="18" height="18" fill="#61C4E3" stroke="#2E9BC4" stroke-width="1.5"/>
    <rect x="420" y="78" width="18" height="18" fill="#61C4E3" stroke="#2E9BC4" stroke-width="1.5"/>
    <rect x="348" y="96" width="18" height="18" fill="#61C4E3" stroke="#2E9BC4" stroke-width="1.5"/>
    <rect x="420" y="96" width="18" height="18" fill="#61C4E3" stroke="#2E9BC4" stroke-width="1.5"/>
    <rect x="348" y="114" width="18" height="18" fill="#61C4E3" stroke="#2E9BC4" stroke-width="1.5"/>
    <rect x="420" y="114" width="18" height="18" fill="#61C4E3" stroke="#2E9BC4" stroke-width="1.5"/>
    <rect x="348" y="132" width="18" height="18" fill="#61C4E3" stroke="#2E9BC4" stroke-width="1.5"/>
    <rect x="366" y="132" width="18" height="18" fill="#61C4E3" stroke="#2E9BC4" stroke-width="1.5"/>
    <rect x="384" y="132" width="18" height="18" fill="#61C4E3" stroke="#2E9BC4" stroke-width="1.5"/>
    <rect x="402" y="132" width="18" height="18" fill="#61C4E3" stroke="#2E9BC4" stroke-width="1.5"/>
    <rect x="24" y="186" width="18" height="18" fill="#61C4E3" stroke="#2E9BC4" stroke-width="1.5"/>
    <rect x="42" y="186" width="18" height="18" fill="#61C4E3" stroke="#2E9BC4" stroke-width="1.5"/>
    <rect x="60" y="186" width="18" height="18" fill="#61C4E3" stroke="#2E9BC4" stroke-width="1.5"/>
    <rect x="78" y="186" width="18" height="18" fill="#61C4E3" stroke="#2E9BC4" stroke-width="1.5"/>
    <rect x="96" y="186" width="18" height="18" fill="#61C4E3" stroke="#2E9BC4" stroke-width="1.5"/>
    <rect x="60" y="204" width="18" height="18" fill="#61C4E3" stroke="#2E9BC4" stroke-width="1.5"/>
    <rect x="60" y="222" width="18" height="18" fill="#61C4E3" stroke="#2E9BC4" stroke-width="1.5"/>
    <rect x="60" y="240" width="18" height="18" fill="#61C4E3" stroke="#2E9BC4" stroke-width="1.5"/>
    <rect x="60" y="258" width="18" height="18" fill="#61C4E3" stroke="#2E9BC4" stroke-width="1.5"/>
    <rect x="60" y="276" width="18" height="18" fill="#61C4E3" stroke="#2E9BC4" stroke-width="1.5"/>
    <rect x="24" y="294" width="18" height="18" fill="#61C4E3" stroke="#2E9BC4" stroke-width="1.5"/>
    <rect x="42" y="294" width="18" height="18" fill="#61C4E3" stroke="#2E9BC4" stroke-width="1.5"/>
    <rect x="60" y="294" width="18" height="18" fill="#61C4E3" stroke="#2E9BC4" stroke-width="1.5"/>
    <rect x="78" y="294" width="18" height="18" fill="#61C4E3" stroke="#2E9BC4" stroke-width="1.5"/>
    <rect x="96" y="294" width="18" height="18" fill="#61C4E3" stroke="#2E9BC4" stroke-width="1.5"/>
    <rect x="132" y="186" width="18" height="18" fill="#61C4E3" stroke="#2E9BC4" stroke-width="1.5"/>
    <rect x="150" y="186" width="18" height="18" fill="#61C4E3" stroke="#2E9BC4" stroke-width="1.5"/>
    <rect x="168" y="186" width="18" height="18" fill="#61C4E3" stroke="#2E9BC4" stroke-width="1.5"/>
    <rect x="186" y="186" width="18" height="18" fill="#61C4E3" stroke="#2E9BC4" stroke-width="1.5"/>
    <rect x="204" y="186" width="18" height="18" fill="#61C4E3" stroke="#2E9BC4" stroke-width="1.5"/>
    <rect x="168" y="204" width="18" height="18" fill="#61C4E3" stroke="#2E9BC4" stroke-width="1.5"/>
    <rect x="168" y="222" width="18" height="18" fill="#61C4E3" stroke="#2E9BC4" stroke-width="1.5"/>
    <rect x="168" y="240" width="18" height="18" fill="#61C4E3" stroke="#2E9BC4" stroke-width="1.5"/>
    <rect x="168" y="258" width="18" height="18" fill="#61C4E3" stroke="#2E9BC4" stroke-width="1.5"/>
    <rect x="168" y="276" width="18" height="18" fill="#61C4E3" stroke="#2E9BC4" stroke-width="1.5"/>
    <rect x="168" y="294" width="18" height="18" fill="#61C4E3" stroke="#2E9BC4" stroke-width="1.5"/>
    <rect x="240" y="186" width="18" height="18" fill="#61C4E3" stroke="#2E9BC4" stroke-width="1.5"/>
    <rect x="258" y="186" width="18" height="18" fill="#61C4E3" stroke="#2E9BC4" stroke-width="1.5"/>
    <rect x="276" y="186" width="18" height="18" fill="#61C4E3" stroke="#2E9BC4" stroke-width="1.5"/>
    <rect x="294" y="186" width="18" height="18" fill="#61C4E3" stroke="#2E9BC4" stroke-width="1.5"/>
    <rect x="312" y="186" width="18" height="18" fill="#61C4E3" stroke="#2E9BC4" stroke-width="1.5"/>
    <rect x="240" y="204" width="18" height="18" fill="#61C4E3" stroke="#2E9BC4" stroke-width="1.5"/>
    <rect x="240" y="222" width="18" height="18" fill="#61C4E3" stroke="#2E9BC4" stroke-width="1.5"/>
    <rect x="240" y="240" width="18" height="18" fill="#61C4E3" stroke="#2E9BC4" stroke-width="1.5"/>
    <rect x="258" y="240" width="18" height="18" fill="#61C4E3" stroke="#2E9BC4" stroke-width="1.5"/>
    <rect x="276" y="240" width="18" height="18" fill="#61C4E3" stroke="#2E9BC4" stroke-width="1.5"/>
    <rect x="294" y="240" width="18" height="18" fill="#61C4E3" stroke="#2E9BC4" stroke-width="1.5"/>
    <rect x="240" y="258" width="18" height="18" fill="#61C4E3" stroke="#2E9BC4" stroke-width="1.5"/>
    <rect x="240" y="276" width="18" height="18" fill="#61C4E3" stroke="#2E9BC4" stroke-width="1.5"/>
    <rect x="240" y="294" width="18" height="18" fill="#61C4E3" stroke="#2E9BC4" stroke-width="1.5"/>
    <rect x="258" y="294" width="18" height="18" fill="#61C4E3" stroke="#2E9BC4" stroke-width="1.5"/>
    <rect x="276" y="294" width="18" height="18" fill="#61C4E3" stroke="#2E9BC4" stroke-width="1.5"/>
    <rect x="294" y="294" width="18" height="18" fill="#61C4E3" stroke="#2E9BC4" stroke-width="1.5"/>
    <rect x="312" y="294" width="18" height="18" fill="#61C4E3" stroke="#2E9BC4" stroke-width="1.5"/>
    <rect x="348" y="186" width="18" height="18" fill="#61C4E3" stroke="#2E9BC4" stroke-width="1.5"/>
    <rect x="420" y="186" width="18" height="18" fill="#61C4E3" stroke="#2E9BC4" stroke-width="1.5"/>
    <rect x="348" y="204" width="18" height="18" fill="#61C4E3" stroke="#2E9BC4" stroke-width="1.5"/>
    <rect x="366" y="204" width="18" height="18" fill="#61C4E3" stroke="#2E9BC4" stroke-width="1.5"/>
    <rect x="402" y="204" width="18" height="18" fill="#61C4E3" stroke="#2E9BC4" stroke-width="1.5"/>
    <rect x="420" y="204" width="18" height="18" fill="#61C4E3" stroke="#2E9BC4" stroke-width="1.5"/>
    <rect x="348" y="222" width="18" height="18" fill="#61C4E3" stroke="#2E9BC4" stroke-width="1.5"/>
    <rect x="384" y="222" width="18" height="18" fill="#61C4E3" stroke="#2E9BC4" stroke-width="1.5"/>
    <rect x="420" y="222" width="18" height="18" fill="#61C4E3" stroke="#2E9BC4" stroke-width="1.5"/>
    <rect x="348" y="240" width="18" height="18" fill="#61C4E3" stroke="#2E9BC4" stroke-width="1.5"/>
    <rect x="384" y="240" width="18" height="18" fill="#61C4E3" stroke="#2E9BC4" stroke-width="1.5"/>
    <rect x="420" y="240" width="18" height="18" fill="#61C4E3" stroke="#2E9BC4" stroke-width="1.5"/>
    <rect x="348" y="258" width="18" height="18" fill="#61C4E3" stroke="#2E9BC4" stroke-width="1.5"/>
    <rect x="420" y="258" width="18" height="18" fill="#61C4E3" stroke="#2E9BC4" stroke-width="1.5"/>
    <rect x="348" y="276" width="18" height="18" fill="#61C4E3" stroke="#2E9BC4" stroke-width="1.5"/>
    <rect x="420" y="276" width="18" height="18" fill="#61C4E3" stroke="#2E9BC4" stroke-width="1.5"/>
    <rect x="348" y="294" width="18" height="18" fill="#61C4E3" stroke="#2E9BC4" stroke-width="1.5"/>
    <rect x="420" y="294" width="18" height="18" fill="#61C4E3" stroke="#2E9BC4" stroke-width="1.5"/>
  </g>
</svg>
